<svg width="23" height="18" viewBox="0 0 23 18" version="1.1" xmlns="http://www.w3.org/2000/svg" xmlns:xlink="http://www.w3.org/1999/xlink">
<title>&#239;&#128;&#140;</title>
<desc>Created using Figma</desc>
<g id="Canvas" transform="translate(209 184)">
<g id="&#239;&#128;&#140;">
<use xlink:href="#path0_fill" transform="translate(-209 -184)" fill="#FFFFFF"/>
</g>
</g>
<defs>
<path id="path0_fill" d="M 22.5845 2.48485C 22.8615 2.76768 23 3.11111 23 3.51515C 23 3.91919 22.8615 4.26263 22.5845 4.54546L 11.8413 15.5152L 9.82323 17.5758C 9.54624 17.8586 9.20989 18 8.81419 18C 8.41849 18 8.08215 17.8586 7.80516 17.5758L 5.7871 15.5152L 0.415484 10.0303C 0.138495 9.74748 0 9.40404 0 9C 0 8.59596 0.138495 8.25252 0.415484 7.9697L 2.43355 5.90909C 2.71054 5.62626 3.04688 5.48485 3.44258 5.48485C 3.83828 5.48485 4.17462 5.62626 4.45161 5.90909L 8.81419 10.3788L 18.5484 0.424243C 18.8254 0.141414 19.1617 0 19.5574 0C 19.9531 0 20.2895 0.141414 20.5664 0.424243L 22.5845 2.48485Z"/>
</defs>
</svg>
