<svg width="20" height="18" viewBox="0 0 20 18" version="1.1" xmlns="http://www.w3.org/2000/svg" xmlns:xlink="http://www.w3.org/1999/xlink">
<title>&#239;&#131;&#128;</title>
<desc>Created using Figma</desc>
<g id="Canvas" transform="translate(158 184)">
<g id="&#239;&#131;&#128;">
<use xlink:href="#path0_fill" transform="translate(-158 -184)" fill="#4C5151"/>
</g>
</g>
<defs>
<path id="path0_fill" d="M 6.17708 9C 5.05208 9.03348 4.13194 9.46205 3.41667 10.2857L 2.02083 10.2857C 1.45139 10.2857 0.972222 10.1518 0.583333 9.88393C 0.194444 9.60937 0 9.21094 0 8.68862C 0 6.32478 0.430556 5.14286 1.29167 5.14286C 1.33333 5.14286 1.48264 5.21317 1.73958 5.35379C 2.00347 5.49442 2.34375 5.63839 2.76042 5.78571C 3.17708 5.92634 3.59028 5.99665 4 5.99665C 4.46528 5.99665 4.92708 5.91964 5.38542 5.76562C 5.35069 6.01339 5.33333 6.23437 5.33333 6.42857C 5.33333 7.35937 5.61458 8.21652 6.17708 9ZM 17.3333 15.3984C 17.3333 16.202 17.0799 16.8348 16.5729 17.2969C 16.066 17.7656 15.3924 18 14.5521 18L 5.44792 18C 4.60764 18 3.93403 17.7656 3.42708 17.2969C 2.92014 16.8348 2.66667 16.202 2.66667 15.3984C 2.66667 15.0435 2.67708 14.6987 2.69792 14.3638C 2.72569 14.0223 2.77431 13.6574 2.84375 13.269C 2.92014 12.8739 3.01389 12.5089 3.125 12.1741C 3.23611 11.8393 3.38542 11.5145 3.57292 11.1998C 3.76042 10.8783 3.97569 10.6071 4.21875 10.3862C 4.46181 10.1585 4.75694 9.97768 5.10417 9.84375C 5.45833 9.70982 5.84722 9.64286 6.27083 9.64286C 6.34028 9.64286 6.48958 9.71652 6.71875 9.86384C 6.94792 10.0045 7.20139 10.1652 7.47917 10.346C 7.75694 10.5201 8.12847 10.6808 8.59375 10.8281C 9.05903 10.9688 9.52778 11.0391 10 11.0391C 10.4722 11.0391 10.941 10.9688 11.4063 10.8281C 11.8715 10.6808 12.2431 10.5201 12.5208 10.346C 12.7986 10.1652 13.0521 10.0045 13.2813 9.86384C 13.5104 9.71652 13.6597 9.64286 13.7292 9.64286C 14.1528 9.64286 14.5382 9.70982 14.8854 9.84375C 15.2396 9.97768 15.5382 10.1585 15.7813 10.3862C 16.0243 10.6071 16.2396 10.8783 16.4271 11.1998C 16.6146 11.5145 16.7639 11.8393 16.875 12.1741C 16.9861 12.5089 17.0764 12.8739 17.1458 13.269C 17.2222 13.6574 17.2708 14.0223 17.2917 14.3638C 17.3194 14.6987 17.3333 15.0435 17.3333 15.3984ZM 5.88542 0.753348C 6.40625 1.25558 6.66667 1.86161 6.66667 2.57143C 6.66667 3.28125 6.40625 3.88728 5.88542 4.38951C 5.36458 4.89174 4.73611 5.14286 4 5.14286C 3.26389 5.14286 2.63542 4.89174 2.11458 4.38951C 1.59375 3.88728 1.33333 3.28125 1.33333 2.57143C 1.33333 1.86161 1.59375 1.25558 2.11458 0.753348C 2.63542 0.251116 3.26389 0 4 0C 4.73611 0 5.36458 0.251116 5.88542 0.753348ZM 12.8229 3.70647C 13.6076 4.45647 14 5.36384 14 6.42857C 14 7.4933 13.6076 8.40402 12.8229 9.16071C 12.0451 9.91071 11.1042 10.2857 10 10.2857C 8.89583 10.2857 7.95139 9.91071 7.16667 9.16071C 6.38889 8.40402 6 7.4933 6 6.42857C 6 5.36384 6.38889 4.45647 7.16667 3.70647C 7.95139 2.94978 8.89583 2.57143 10 2.57143C 11.1042 2.57143 12.0451 2.94978 12.8229 3.70647ZM 20 8.68862C 20 9.21094 19.8056 9.60937 19.4167 9.88393C 19.0278 10.1518 18.5486 10.2857 17.9792 10.2857L 16.5833 10.2857C 15.8681 9.46205 14.9479 9.03348 13.8229 9C 14.3854 8.21652 14.6667 7.35937 14.6667 6.42857C 14.6667 6.23437 14.6493 6.01339 14.6146 5.76562C 15.0729 5.91964 15.5347 5.99665 16 5.99665C 16.4097 5.99665 16.8229 5.92634 17.2396 5.78571C 17.6563 5.63839 17.9931 5.49442 18.25 5.35379C 18.5139 5.21317 18.6667 5.14286 18.7083 5.14286C 19.5694 5.14286 20 6.32478 20 8.68862ZM 17.8854 0.753348C 18.4062 1.25558 18.6667 1.86161 18.6667 2.57143C 18.6667 3.28125 18.4062 3.88728 17.8854 4.38951C 17.3646 4.89174 16.7361 5.14286 16 5.14286C 15.2639 5.14286 14.6354 4.89174 14.1146 4.38951C 13.5938 3.88728 13.3333 3.28125 13.3333 2.57143C 13.3333 1.86161 13.5938 1.25558 14.1146 0.753348C 14.6354 0.251116 15.2639 0 16 0C 16.7361 0 17.3646 0.251116 17.8854 0.753348Z"/>
</defs>
</svg>
