<svg width="18" height="18" viewBox="0 0 18 18" version="1.1" xmlns="http://www.w3.org/2000/svg" xmlns:xlink="http://www.w3.org/1999/xlink">
<title>&#239;&#129;&#167;</title>
<desc>Created using Figma</desc>
<g id="Canvas" transform="translate(182 184)">
<g id="&#239;&#129;&#167;">
<use xlink:href="#path0_fill" transform="translate(-182 -184)" fill="#FFFFFF"/>
</g>
</g>
<defs>
<path id="path0_fill" d="M 18 7.77273L 18 10.2273C 18 10.5682 17.8807 10.858 17.642 11.0966C 17.4034 11.3352 17.1136 11.4545 16.7727 11.4545L 11.4545 11.4545L 11.4545 16.7727C 11.4545 17.1136 11.3352 17.4034 11.0966 17.642C 10.858 17.8807 10.5682 18 10.2273 18L 7.77273 18C 7.43182 18 7.14205 17.8807 6.90341 17.642C 6.66477 17.4034 6.54545 17.1136 6.54545 16.7727L 6.54545 11.4545L 1.22727 11.4545C 0.886364 11.4545 0.596591 11.3352 0.357955 11.0966C 0.119318 10.858 0 10.5682 0 10.2273L 0 7.77273C 0 7.43182 0.119318 7.14205 0.357955 6.90341C 0.596591 6.66477 0.886364 6.54545 1.22727 6.54545L 6.54545 6.54545L 6.54545 1.22727C 6.54545 0.886364 6.66477 0.596591 6.90341 0.357955C 7.14205 0.119318 7.43182 0 7.77273 0L 10.2273 0C 10.5682 0 10.858 0.119318 11.0966 0.357955C 11.3352 0.596591 11.4545 0.886364 11.4545 1.22727L 11.4545 6.54545L 16.7727 6.54545C 17.1136 6.54545 17.4034 6.66477 17.642 6.90341C 17.8807 7.14205 18 7.43182 18 7.77273Z"/>
</defs>
</svg>
