<svg width="34" height="28" viewBox="0 0 34 28" version="1.1" xmlns="http://www.w3.org/2000/svg" xmlns:xlink="http://www.w3.org/1999/xlink">
<title>&#239;&#128;&#146;</title>
<desc>Created using Figma</desc>
<g id="Canvas" transform="translate(134 189)">
<g id="&#239;&#128;&#146;">
<use xlink:href="#path0_fill" transform="translate(-134 -189)" fill="#B6B6B6"/>
</g>
</g>
<defs>
<path id="path0_fill" d="M 4.85714 23.9167L 4.85714 27.4167C 4.85714 27.5868 4.80022 27.7266 4.68638 27.8359C 4.57254 27.9453 4.42708 28 4.25 28L 0.607143 28C 0.43006 28 0.284598 27.9453 0.170759 27.8359C 0.0569196 27.7266 0 27.5868 0 27.4167L 0 23.9167C 0 23.7465 0.0569196 23.6068 0.170759 23.4974C 0.284598 23.388 0.43006 23.3333 0.607143 23.3333L 4.25 23.3333C 4.42708 23.3333 4.57254 23.388 4.68638 23.4974C 4.80022 23.6068 4.85714 23.7465 4.85714 23.9167ZM 12.1429 21.5833L 12.1429 27.4167C 12.1429 27.5868 12.0859 27.7266 11.9721 27.8359C 11.8583 27.9453 11.7128 28 11.5357 28L 7.89286 28C 7.71577 28 7.57031 27.9453 7.45647 27.8359C 7.34263 27.7266 7.28571 27.5868 7.28571 27.4167L 7.28571 21.5833C 7.28571 21.4132 7.34263 21.2734 7.45647 21.1641C 7.57031 21.0547 7.71577 21 7.89286 21L 11.5357 21C 11.7128 21 11.8583 21.0547 11.9721 21.1641C 12.0859 21.2734 12.1429 21.4132 12.1429 21.5833ZM 19.4286 16.9167L 19.4286 27.4167C 19.4286 27.5868 19.3717 27.7266 19.2578 27.8359C 19.144 27.9453 18.9985 28 18.8214 28L 15.1786 28C 15.0015 28 14.856 27.9453 14.7422 27.8359C 14.6283 27.7266 14.5714 27.5868 14.5714 27.4167L 14.5714 16.9167C 14.5714 16.7465 14.6283 16.6068 14.7422 16.4974C 14.856 16.388 15.0015 16.3333 15.1786 16.3333L 18.8214 16.3333C 18.9985 16.3333 19.144 16.388 19.2578 16.4974C 19.3717 16.6068 19.4286 16.7465 19.4286 16.9167ZM 26.7143 9.91667L 26.7143 27.4167C 26.7143 27.5868 26.6574 27.7266 26.5435 27.8359C 26.4297 27.9453 26.2842 28 26.1071 28L 22.4643 28C 22.2872 28 22.1417 27.9453 22.0279 27.8359C 21.9141 27.7266 21.8571 27.5868 21.8571 27.4167L 21.8571 9.91667C 21.8571 9.74653 21.9141 9.60677 22.0279 9.4974C 22.1417 9.38802 22.2872 9.33333 22.4643 9.33333L 26.1071 9.33333C 26.2842 9.33333 26.4297 9.38802 26.5435 9.4974C 26.6574 9.60677 26.7143 9.74653 26.7143 9.91667ZM 34 0.583333L 34 27.4167C 34 27.5868 33.9431 27.7266 33.8292 27.8359C 33.7154 27.9453 33.5699 28 33.3929 28L 29.75 28C 29.5729 28 29.4275 27.9453 29.3136 27.8359C 29.1998 27.7266 29.1429 27.5868 29.1429 27.4167L 29.1429 0.583333C 29.1429 0.413194 29.1998 0.273437 29.3136 0.164062C 29.4275 0.0546874 29.5729 0 29.75 0L 33.3929 0C 33.5699 0 33.7154 0.0546874 33.8292 0.164062C 33.9431 0.273437 34 0.413194 34 0.583333Z"/>
</defs>
</svg>
